<svg width="109" height="140" viewBox="0 0 109 140" fill="none" xmlns="http://www.w3.org/2000/svg">
<g filter="url(#filter0_i_7_10184)">
<g clip-path="url(#clip0_7_10184)">
<rect width="109" height="109" rx="28" fill="#4553EB" style="fill:#4553EB;fill:color(display-p3 0.2706 0.3255 0.9216);fill-opacity:1;"/>
<path d="M305.711 74.4053C305.711 153.475 241.612 217.574 162.542 217.574C83.472 217.574 19.373 153.475 19.373 74.4053C19.373 -4.66475 83.472 -68.7637 162.542 -68.7637C241.612 -68.7637 305.711 -4.66475 305.711 74.4053Z" fill="#FF8D8D" style="fill:#FF8D8D;fill:color(display-p3 1.0000 0.5542 0.5542);fill-opacity:1;"/>
<path fill-rule="evenodd" clip-rule="evenodd" d="M162.542 211.816C238.432 211.816 299.953 150.295 299.953 74.4053C299.953 -1.4846 238.432 -63.0055 162.542 -63.0055C86.6521 -63.0055 25.1312 -1.4846 25.1312 74.4053C25.1312 150.295 86.6521 211.816 162.542 211.816ZM162.542 217.574C241.612 217.574 305.711 153.475 305.711 74.4053C305.711 -4.66476 241.612 -68.7637 162.542 -68.7637C83.472 -68.7637 19.373 -4.66476 19.373 74.4053C19.373 153.475 83.472 217.574 162.542 217.574Z" fill="black" style="fill:black;fill-opacity:1;"/>
<path d="M42.6556 49.2825C42.6556 50.4686 41.6067 51.4302 40.3127 51.4302C39.0187 51.4302 37.9697 50.4686 37.9697 49.2825C37.9697 48.0963 39.0187 47.1348 40.3127 47.1348C41.6067 47.1348 42.6556 48.0963 42.6556 49.2825Z" fill="black" style="fill:black;fill-opacity:1;"/>
<path d="M77.8002 53.5774C77.8002 54.7635 76.7512 55.7251 75.4572 55.7251C74.1632 55.7251 73.1143 54.7635 73.1143 53.5774C73.1143 52.3913 74.1632 51.4297 75.4572 51.4297C76.7512 51.4297 77.8002 52.3913 77.8002 53.5774Z" fill="black" style="fill:black;fill-opacity:1;"/>
<path fill-rule="evenodd" clip-rule="evenodd" d="M43.1665 55.9227C43.3104 54.4837 44.5937 53.4337 46.0327 53.5776C47.0628 53.6807 47.9252 54.1607 48.3507 54.3998C48.568 54.5219 48.7233 54.6114 48.8398 54.6785C49.0572 54.8038 49.1392 54.8511 49.236 54.8869C50.6518 55.4107 52.1478 55.8347 53.6237 56.1266C55.2165 56.4417 57.0019 56.6566 58.5265 56.6566C59.1425 56.6566 59.7594 56.5831 60.5449 56.484C60.5713 56.4806 60.598 56.4773 60.6249 56.4739C61.3463 56.3827 62.237 56.2701 63.1645 56.2701C64.6107 56.2701 65.7831 57.4425 65.7831 58.8887C65.7831 60.335 64.6107 61.5074 63.1645 61.5074C62.5886 61.5074 61.9972 61.5795 61.2004 61.68L61.1663 61.6843C60.4257 61.7778 59.5059 61.8939 58.5265 61.8939C56.5739 61.8939 54.4374 61.6263 52.6074 61.2643C50.8538 60.9175 49.0901 60.4171 47.4186 59.7987C47.0335 59.6562 46.6927 59.4783 46.4418 59.3399C46.3121 59.2684 46.1866 59.1961 46.0798 59.1346C46.0661 59.1266 46.0526 59.1188 46.0395 59.1112C45.9445 59.0564 45.8647 59.0104 45.7848 58.9654C45.5999 58.8615 45.4915 58.8081 45.4215 58.7793C45.4203 58.7788 45.4192 58.7783 45.4181 58.7779C44.0274 58.589 43.0257 57.3304 43.1665 55.9227ZM45.3875 58.7664C45.3875 58.7664 45.3885 58.7667 45.3906 58.7674C45.3885 58.7668 45.3875 58.7664 45.3875 58.7664Z" fill="black" style="fill:black;fill-opacity:1;"/>
</g>
<rect x="0.5" y="0.5" width="108" height="108" rx="27.5" stroke="white" stroke-opacity="0.2" style="stroke:white;stroke-opacity:0.2;"/>
</g>
<path d="M23.7768 124.312V134H22.5028V126.776L19.2828 134H18.3868L15.1528 126.762V134H13.8788V124.312H15.2508L18.8348 132.32L22.4188 124.312H23.7768ZM27.2114 127.574C27.4354 127.135 27.7527 126.795 28.1634 126.552C28.5834 126.309 29.092 126.188 29.6894 126.188V127.504H29.3534C27.9254 127.504 27.2114 128.279 27.2114 129.828V134H25.9374V126.328H27.2114V127.574ZM31.566 134.084C31.3234 134.084 31.118 134 30.95 133.832C30.782 133.664 30.698 133.459 30.698 133.216C30.698 132.973 30.782 132.768 30.95 132.6C31.118 132.432 31.3234 132.348 31.566 132.348C31.7994 132.348 31.9954 132.432 32.154 132.6C32.322 132.768 32.406 132.973 32.406 133.216C32.406 133.459 32.322 133.664 32.154 133.832C31.9954 134 31.7994 134.084 31.566 134.084ZM45.3499 124.242V134H44.0759V129.576H39.1059V134H37.8319V124.242H39.1059V128.526H44.0759V124.242H45.3499ZM47.0493 130.136C47.0493 129.352 47.2079 128.666 47.5253 128.078C47.8426 127.481 48.2766 127.019 48.8273 126.692C49.3873 126.365 50.0079 126.202 50.6893 126.202C51.3613 126.202 51.9446 126.347 52.4393 126.636C52.9339 126.925 53.3026 127.289 53.5453 127.728V126.328H54.8333V134H53.5453V132.572C53.2933 133.02 52.9153 133.393 52.4113 133.692C51.9166 133.981 51.3379 134.126 50.6753 134.126C49.9939 134.126 49.3779 133.958 48.8273 133.622C48.2766 133.286 47.8426 132.815 47.5253 132.208C47.2079 131.601 47.0493 130.911 47.0493 130.136ZM53.5453 130.15C53.5453 129.571 53.4286 129.067 53.1953 128.638C52.9619 128.209 52.6446 127.882 52.2433 127.658C51.8513 127.425 51.4173 127.308 50.9413 127.308C50.4653 127.308 50.0313 127.42 49.6393 127.644C49.2473 127.868 48.9346 128.195 48.7013 128.624C48.4679 129.053 48.3513 129.557 48.3513 130.136C48.3513 130.724 48.4679 131.237 48.7013 131.676C48.9346 132.105 49.2473 132.437 49.6393 132.67C50.0313 132.894 50.4653 133.006 50.9413 133.006C51.4173 133.006 51.8513 132.894 52.2433 132.67C52.6446 132.437 52.9619 132.105 53.1953 131.676C53.4286 131.237 53.5453 130.729 53.5453 130.15ZM59.7022 134.126C59.1142 134.126 58.5869 134.028 58.1202 133.832C57.6535 133.627 57.2849 133.347 57.0142 132.992C56.7435 132.628 56.5942 132.213 56.5662 131.746H57.8822C57.9195 132.129 58.0969 132.441 58.4142 132.684C58.7409 132.927 59.1655 133.048 59.6882 133.048C60.1735 133.048 60.5562 132.941 60.8362 132.726C61.1162 132.511 61.2562 132.241 61.2562 131.914C61.2562 131.578 61.1069 131.331 60.8082 131.172C60.5095 131.004 60.0475 130.841 59.4222 130.682C58.8529 130.533 58.3862 130.383 58.0222 130.234C57.6675 130.075 57.3595 129.847 57.0982 129.548C56.8462 129.24 56.7202 128.839 56.7202 128.344C56.7202 127.952 56.8369 127.593 57.0702 127.266C57.3035 126.939 57.6349 126.683 58.0642 126.496C58.4935 126.3 58.9835 126.202 59.5342 126.202C60.3835 126.202 61.0695 126.417 61.5922 126.846C62.1149 127.275 62.3949 127.863 62.4322 128.61H61.1582C61.1302 128.209 60.9669 127.887 60.6682 127.644C60.3789 127.401 59.9869 127.28 59.4922 127.28C59.0349 127.28 58.6709 127.378 58.4002 127.574C58.1295 127.77 57.9942 128.027 57.9942 128.344C57.9942 128.596 58.0735 128.806 58.2322 128.974C58.4002 129.133 58.6055 129.263 58.8482 129.366C59.1002 129.459 59.4455 129.567 59.8842 129.688C60.4349 129.837 60.8829 129.987 61.2282 130.136C61.5735 130.276 61.8675 130.491 62.1102 130.78C62.3622 131.069 62.4929 131.447 62.5022 131.914C62.5022 132.334 62.3855 132.712 62.1522 133.048C61.9189 133.384 61.5875 133.65 61.1582 133.846C60.7382 134.033 60.2529 134.126 59.7022 134.126ZM68.1087 126.188C68.6873 126.188 69.21 126.314 69.6767 126.566C70.1433 126.809 70.5073 127.177 70.7687 127.672C71.0393 128.167 71.1747 128.769 71.1747 129.478V134H69.9147V129.66C69.9147 128.895 69.7233 128.311 69.3407 127.91C68.958 127.499 68.4353 127.294 67.7727 127.294C67.1007 127.294 66.564 127.504 66.1627 127.924C65.7707 128.344 65.5747 128.955 65.5747 129.758V134H64.3007V123.64H65.5747V127.42C65.8267 127.028 66.172 126.725 66.6107 126.51C67.0587 126.295 67.558 126.188 68.1087 126.188ZM74.8097 127.378V131.9C74.8097 132.273 74.8891 132.539 75.0477 132.698C75.2064 132.847 75.4817 132.922 75.8737 132.922H76.8117V134H75.6637C74.9544 134 74.4224 133.837 74.0677 133.51C73.7131 133.183 73.5357 132.647 73.5357 131.9V127.378H72.5417V126.328H73.5357V124.396H74.8097V126.328H76.8117V127.378H74.8097ZM77.8793 130.136C77.8793 129.352 78.038 128.666 78.3553 128.078C78.6727 127.481 79.1067 127.019 79.6573 126.692C80.2173 126.365 80.838 126.202 81.5193 126.202C82.1913 126.202 82.7747 126.347 83.2693 126.636C83.764 126.925 84.1327 127.289 84.3753 127.728V126.328H85.6633V134H84.3753V132.572C84.1233 133.02 83.7453 133.393 83.2413 133.692C82.7467 133.981 82.168 134.126 81.5053 134.126C80.824 134.126 80.208 133.958 79.6573 133.622C79.1067 133.286 78.6727 132.815 78.3553 132.208C78.038 131.601 77.8793 130.911 77.8793 130.136ZM84.3753 130.15C84.3753 129.571 84.2587 129.067 84.0253 128.638C83.792 128.209 83.4747 127.882 83.0733 127.658C82.6813 127.425 82.2473 127.308 81.7713 127.308C81.2953 127.308 80.8613 127.42 80.4693 127.644C80.0773 127.868 79.7647 128.195 79.5313 128.624C79.298 129.053 79.1813 129.557 79.1813 130.136C79.1813 130.724 79.298 131.237 79.5313 131.676C79.7647 132.105 80.0773 132.437 80.4693 132.67C80.8613 132.894 81.2953 133.006 81.7713 133.006C82.2473 133.006 82.6813 132.894 83.0733 132.67C83.4747 132.437 83.792 132.105 84.0253 131.676C84.2587 131.237 84.3753 130.729 84.3753 130.15ZM90.9803 126.202C91.6429 126.202 92.2216 126.347 92.7163 126.636C93.2203 126.925 93.5936 127.289 93.8363 127.728V126.328H95.1243V134.168C95.1243 134.868 94.9749 135.489 94.6763 136.03C94.3776 136.581 93.9483 137.01 93.3883 137.318C92.8376 137.626 92.1936 137.78 91.4563 137.78C90.4483 137.78 89.6083 137.542 88.9363 137.066C88.2643 136.59 87.8676 135.941 87.7463 135.12H89.0063C89.1463 135.587 89.4356 135.96 89.8743 136.24C90.3129 136.529 90.8403 136.674 91.4563 136.674C92.1563 136.674 92.7256 136.455 93.1643 136.016C93.6123 135.577 93.8363 134.961 93.8363 134.168V132.558C93.5843 133.006 93.2109 133.379 92.7163 133.678C92.2216 133.977 91.6429 134.126 90.9803 134.126C90.2989 134.126 89.6783 133.958 89.1183 133.622C88.5676 133.286 88.1336 132.815 87.8163 132.208C87.4989 131.601 87.3403 130.911 87.3403 130.136C87.3403 129.352 87.4989 128.666 87.8163 128.078C88.1336 127.481 88.5676 127.019 89.1183 126.692C89.6783 126.365 90.2989 126.202 90.9803 126.202ZM93.8363 130.15C93.8363 129.571 93.7196 129.067 93.4863 128.638C93.2529 128.209 92.9356 127.882 92.5343 127.658C92.1423 127.425 91.7083 127.308 91.2323 127.308C90.7563 127.308 90.3223 127.42 89.9303 127.644C89.5383 127.868 89.2256 128.195 88.9923 128.624C88.7589 129.053 88.6423 129.557 88.6423 130.136C88.6423 130.724 88.7589 131.237 88.9923 131.676C89.2256 132.105 89.5383 132.437 89.9303 132.67C90.3223 132.894 90.7563 133.006 91.2323 133.006C91.7083 133.006 92.1423 132.894 92.5343 132.67C92.9356 132.437 93.2529 132.105 93.4863 131.676C93.7196 131.237 93.8363 130.729 93.8363 130.15Z" fill="white" style="fill:white;fill-opacity:1;"/>
<defs>
<filter id="filter0_i_7_10184" x="0" y="0" width="113" height="113" filterUnits="userSpaceOnUse" color-interpolation-filters="sRGB">
<feFlood flood-opacity="0" result="BackgroundImageFix"/>
<feBlend mode="normal" in="SourceGraphic" in2="BackgroundImageFix" result="shape"/>
<feColorMatrix in="SourceAlpha" type="matrix" values="0 0 0 0 0 0 0 0 0 0 0 0 0 0 0 0 0 0 127 0" result="hardAlpha"/>
<feOffset dx="4" dy="4"/>
<feGaussianBlur stdDeviation="2"/>
<feComposite in2="hardAlpha" operator="arithmetic" k2="-1" k3="1"/>
<feColorMatrix type="matrix" values="0 0 0 0 1 0 0 0 0 1 0 0 0 0 1 0 0 0 0.1 0"/>
<feBlend mode="normal" in2="shape" result="effect1_innerShadow_7_10184"/>
</filter>
<clipPath id="clip0_7_10184">
<rect width="109" height="109" rx="28" fill="white" style="fill:white;fill-opacity:1;"/>
</clipPath>
</defs>
</svg>
